<svg width="24" height="24" viewBox="0 0 24 24" fill="none" xmlns="http://www.w3.org/2000/svg">
<rect width="24" height="24" rx="12" fill="#E1354C"/>
<path d="M15.7219 20.7805H8.56948L3.51221 15.7224V8.56968L8.56948 3.51221H15.7219L19.6632 7.45366H19.6645V7.45499L20.7792 8.56968V11.7255H20.7805V12.3055H20.7792V15.7224L15.7219 20.7805ZM12.4861 17.4458V20.2005H15.4816L15.5043 20.1778V18.9369H13.795V18.3569H15.5043V16.9158H16.0843V19.5977L17.6708 18.0111H16.5068V17.5319H18.1507L19.1472 16.5347H16.9113V15.9546H18.5078V13.9909H19.0878V15.9546H19.7273L20.1998 15.4827V13.2907H18.8389V12.6833H20.1998V12.3055H18.1474V13.7059H17.5674V12.3055H13.7416V13.7059H13.1615V12.3055H12.4861V14.4642H13.3738V15.0435H12.4861V16.8657H15.0124V17.4458H13.4158V19.4095H12.8358V17.4458H12.4861ZM8.87518 18.9369V20.2005H11.9061V17.4458H11.5436V19.4095H10.9643V17.4458H9.36709V16.8657H11.9061V15.0435H11.0063V14.4642H11.9061V12.3055H11.2186V13.7059H10.6386V12.3055H6.81208V13.7059H6.23274V12.3055H4.09155V12.6833H5.54126V13.2907H4.09155V15.4827L4.56411 15.9546H5.2923V13.9909H5.87231V15.9546H7.46886V16.5347H5.14412L6.16132 17.5519V17.5319H7.87333V18.0111H6.62053L8.29583 19.6865V16.9158H8.87518V18.3569H10.5845V18.9369H8.87518ZM17.5661 10.2824H18.1461V11.7255H20.1998V11.3057H18.8375V10.6976H20.1998V8.80997L19.4236 8.03369H19.0858V9.99674H18.5065V8.03369H16.9093V7.45366H18.8436L17.8464 6.45711H16.5055V5.9772H17.3672L16.083 4.69297V7.07253H15.503V5.63145H13.7936V5.05141H15.503V4.1136L15.4816 4.09224H12.4861V6.54255H12.8345V4.57883H13.4145V6.54255H15.0111V7.12259H12.4861V8.9448H13.3718V9.52484H12.4861V11.7255H13.1595V10.2824H13.7396V11.7255H17.5661V10.2824ZM10.6372 10.2824H11.2173V11.7255H11.9061V9.52484H11.005V8.9448H11.9061V7.12259H9.36575V6.54255H10.963V4.57883H11.5423V6.54255H11.9061V4.09224H8.87384V5.05141H10.5832V5.63145H8.87384V7.07253H8.29449V4.60754L6.92422 5.9772H7.872V6.45711H6.44499L5.44781 7.45366H7.46752V8.03369H5.87098V9.99674H5.29096V8.03369H4.8678L4.09155 8.80997V10.6976H5.53926V11.3057H4.09155V11.7255H6.23073V10.2824H6.81075V11.7255H10.6372V10.2824Z" fill="#E69CA1"/>
</svg>
