<svg width="42" height="42" viewBox="0 0 42 42" fill="none" xmlns="http://www.w3.org/2000/svg">
<rect width="42" height="42" rx="21" fill="#E1354C"/>
<path d="M27.5133 36.3658H14.9966L6.14633 27.5141V14.9969L14.9966 6.14633H27.5133L34.4105 13.0439H34.4129V13.0462L36.3635 14.9969V20.5196H36.3658V21.5347H36.3635V27.5141L27.5133 36.3658ZM21.8506 30.5301V35.3508H27.0928L27.1325 35.3111V33.1396H24.1411V32.1245H27.1325V29.6026H28.1475V34.296L30.9239 31.5195H28.8869V30.6808H31.7638L33.5077 28.9357H29.5947V27.9206H32.3887V24.4841H33.4037V27.9206H34.5227L35.3496 27.0948V23.2588H32.968V22.1958H35.3496V21.5347H31.7579V23.9853H30.7429V21.5347H24.0477V23.9853H23.0327V21.5347H21.8506V25.3123H23.4041V26.3262H21.8506V29.515H26.2716V30.5301H23.4777V33.9666H22.4627V30.5301H21.8506ZM15.5315 33.1396V35.3508H20.8356V30.5301H20.2013V33.9666H19.1875V30.5301H16.3924V29.515H20.8356V26.3262H19.2611V25.3123H20.8356V21.5347H19.6325V23.9853H18.6175V21.5347H11.9211V23.9853H10.9073V21.5347H7.16019V22.1958H9.69717V23.2588H7.16019V27.0948L7.98716 27.9206H9.26149V24.4841H10.2765V27.9206H13.0705V28.9357H9.00219L10.7823 30.7158V30.6808H13.7783V31.5195H11.5859L14.5177 34.4514V29.6026H15.5315V32.1245H18.5229V33.1396H15.5315ZM30.7406 17.9942H31.7556V20.5196H35.3496V19.7849H32.9657V18.7208H35.3496V15.4174L33.9912 14.0589H33.4002V17.4943H32.3863V14.0589H29.5912V13.0439H32.9762L31.2311 11.2999H28.8846V10.4601H30.3925L28.1452 8.21267V12.3769H27.1302V9.855H24.1388V8.83993H27.1302V7.19878L27.0928 7.1614H21.8506V11.4494H22.4603V8.01293H23.4754V11.4494H26.2693V12.4645H21.8506V15.6534H23.4006V16.6684H21.8506V20.5196H23.0292V17.9942H24.0442V20.5196H30.7406V17.9942ZM18.6152 17.9942H19.6302V20.5196H20.8356V16.6684H19.2587V15.6534H20.8356V12.4645H16.39V11.4494H19.1852V8.01293H20.199V11.4494H20.8356V7.1614H15.5292V8.83993H18.5205V9.855H15.5292V12.3769H14.5153V8.06316L12.1173 10.4601H13.776V11.2999H11.2787L9.53365 13.0439H13.0681V14.0589H10.2742V17.4943H9.25916V14.0589H8.51862L7.16019 15.4174V18.7208H9.69367V19.7849H7.16019V20.5196H10.9038V17.9942H11.9188V20.5196H18.6152V17.9942Z" fill="#E69CA1"/>
</svg>
