<svg width="16" height="16" viewBox="0 0 16 16" fill="none" xmlns="http://www.w3.org/2000/svg">
<path d="M8.00001 2C4.33334 2 1.33334 4.38667 1.33334 7.33333C1.36668 8.76667 2.04001 10.1133 3.16668 11C3.16668 11.4 2.88668 12.4467 1.33334 14C2.91334 13.9267 4.42668 13.3333 5.64668 12.3333C6.40668 12.5533 7.20668 12.6667 8.00001 12.6667C11.6667 12.6667 14.6667 10.28 14.6667 7.33333C14.6667 4.38667 11.6667 2 8.00001 2ZM8.00001 11.3333C5.05334 11.3333 2.66668 9.54 2.66668 7.33333C2.66668 5.12667 5.05334 3.33333 8.00001 3.33333C10.9467 3.33333 13.3333 5.12667 13.3333 7.33333C13.3333 9.54 10.9467 11.3333 8.00001 11.3333ZM11.3333 8V6.66667H10V8H11.3333ZM8.66668 8V6.66667H7.33334V8H8.66668ZM6.00001 8V6.66667H4.66668V8H6.00001Z" fill="#FFC328"/>
</svg>
