<svg width="16" height="16" viewBox="0 0 16 16" fill="none" xmlns="http://www.w3.org/2000/svg">
<path d="M7.99998 2C4.33331 2 1.33331 4.38667 1.33331 7.33333C1.36665 8.76667 2.03998 10.1133 3.16665 11C3.16665 11.4 2.88665 12.4467 1.33331 14C2.91331 13.9267 4.42665 13.3333 5.64665 12.3333C6.40665 12.5533 7.20665 12.6667 7.99998 12.6667C11.6666 12.6667 14.6666 10.28 14.6666 7.33333C14.6666 4.38667 11.6666 2 7.99998 2ZM7.99998 11.3333C5.05331 11.3333 2.66665 9.54 2.66665 7.33333C2.66665 5.12667 5.05331 3.33333 7.99998 3.33333C10.9466 3.33333 13.3333 5.12667 13.3333 7.33333C13.3333 9.54 10.9466 11.3333 7.99998 11.3333ZM11.3333 8V6.66667H9.99998V8H11.3333ZM8.66665 8V6.66667H7.33331V8H8.66665ZM5.99998 8V6.66667H4.66665V8H5.99998Z" fill="#FFC328"/>
</svg>
