<svg width="15" height="15" viewBox="0 0 15 15" fill="none" xmlns="http://www.w3.org/2000/svg">
<path fill-rule="evenodd" clip-rule="evenodd" d="M7.49998 14.2683C11.238 14.2683 14.2683 11.238 14.2683 7.49998C14.2683 3.76196 11.238 0.731689 7.49998 0.731689C3.76196 0.731689 0.731689 3.76196 0.731689 7.49998C0.731689 11.238 3.76196 14.2683 7.49998 14.2683ZM10.93 4.69931L10.6693 6.50393H11.2342V7.71435H10.4955L10.0247 11.0008H8.28659L7.62754 7.83173L6.97573 11.0008H5.23758L4.76683 7.71435H4.02811V6.50393H4.59301L4.46989 5.67498L3.99914 4.69931H5.70833L5.9256 6.50393H6.64258L6.93952 4.69931H8.3228L8.61974 6.50393H9.33673L9.55399 4.69931H10.93ZM6.22253 9.02747L6.4398 7.71435H6.0632L6.22253 9.02747ZM9.19912 7.71435H8.82252L9.03979 9.02747L9.19912 7.71435Z" fill="#FFC328"/>
</svg>
