<svg width="15" height="15" viewBox="0 0 15 15" fill="none" xmlns="http://www.w3.org/2000/svg">
<path fill-rule="evenodd" clip-rule="evenodd" d="M7.50001 14.2683C11.238 14.2683 14.2683 11.238 14.2683 7.49998C14.2683 3.76196 11.238 0.731689 7.50001 0.731689C3.76199 0.731689 0.73172 3.76196 0.73172 7.49998C0.73172 11.238 3.76199 14.2683 7.50001 14.2683ZM10.9301 4.69931L10.6693 6.50393H11.2342V7.71435H10.4955L10.0248 11.0008H8.28662L7.62757 7.83173L6.97576 11.0008H5.23761L4.76686 7.71435H4.02814V6.50393H4.59304L4.46992 5.67498L3.99917 4.69931H5.70836L5.92563 6.50393H6.64262L6.93955 4.69931H8.32283L8.61977 6.50393H9.33676L9.55402 4.69931H10.9301ZM6.22256 9.02747L6.43983 7.71435H6.06323L6.22256 9.02747ZM9.19915 7.71435H8.82255L9.03982 9.02747L9.19915 7.71435Z" fill="#FFC328"/>
</svg>
